<?xml version="1.0" encoding="utf-8" ?>
<svg baseProfile="full" height="109" version="1.1" viewBox="0 0 228 109" width="228" xmlns="http://www.w3.org/2000/svg" xmlns:ev="http://www.w3.org/2001/xml-events" xmlns:xlink="http://www.w3.org/1999/xlink"><defs><linearGradient id="goldGradient" x1="0" x2="0" y1="0" y2="1"><stop offset="0" stop-color="#F8E7A1" /><stop offset="0.28" stop-color="#E9C75A" /><stop offset="0.55" stop-color="#C9971A" /><stop offset="0.78" stop-color="#E7C65B" /><stop offset="1" stop-color="#8F6A14" /></linearGradient></defs><path d="M 62 37 L 61 38 L 58 38 L 57 39 L 56 39 L 55 40 L 54 40 L 52 42 L 51 42 L 45 48 L 45 50 L 44 51 L 44 52 L 43 53 L 43 62 L 44 63 L 44 64 L 45 65 L 45 66 L 47 68 L 47 69 L 48 70 L 49 70 L 51 72 L 52 72 L 53 73 L 55 73 L 56 74 L 58 74 L 59 75 L 69 75 L 70 74 L 71 74 L 72 73 L 74 73 L 76 71 L 77 71 L 80 68 L 80 67 L 81 66 L 81 65 L 82 64 L 82 55 L 80 53 L 80 52 L 78 50 L 77 50 L 76 49 L 75 49 L 74 48 L 69 48 L 68 49 L 66 49 L 64 51 L 64 52 L 63 53 L 63 55 L 67 51 L 69 51 L 70 50 L 72 50 L 73 51 L 75 51 L 76 52 L 77 52 L 80 55 L 80 56 L 81 57 L 81 62 L 80 63 L 80 64 L 74 70 L 73 70 L 72 71 L 71 71 L 70 72 L 68 72 L 67 73 L 59 73 L 58 72 L 56 72 L 55 71 L 54 71 L 53 70 L 52 70 L 50 68 L 49 68 L 47 66 L 47 65 L 45 63 L 45 54 L 46 53 L 46 52 L 52 46 L 53 46 L 54 45 L 55 45 L 56 44 L 58 44 L 59 43 L 62 43 L 63 42 L 80 42 L 81 43 L 85 43 L 86 44 L 88 44 L 89 45 L 92 45 L 93 46 L 95 46 L 96 47 L 97 47 L 98 48 L 100 48 L 101 49 L 103 49 L 105 51 L 107 51 L 108 52 L 109 52 L 110 53 L 111 53 L 112 54 L 113 54 L 114 55 L 115 55 L 116 56 L 117 56 L 118 57 L 119 57 L 121 59 L 122 59 L 123 60 L 124 60 L 125 61 L 126 61 L 127 62 L 128 62 L 129 63 L 130 63 L 131 64 L 132 64 L 133 65 L 134 65 L 135 66 L 136 66 L 137 67 L 138 67 L 139 68 L 141 68 L 143 70 L 145 70 L 146 71 L 147 71 L 148 72 L 150 72 L 151 73 L 153 73 L 154 74 L 156 74 L 157 75 L 160 75 L 161 76 L 180 76 L 181 75 L 183 75 L 184 74 L 185 74 L 186 73 L 188 73 L 189 72 L 190 72 L 192 70 L 193 70 L 194 69 L 194 68 L 191 68 L 190 69 L 189 69 L 188 70 L 185 70 L 184 71 L 180 71 L 179 72 L 169 72 L 168 71 L 163 71 L 162 70 L 159 70 L 158 69 L 156 69 L 155 68 L 153 68 L 152 67 L 150 67 L 149 66 L 148 66 L 147 65 L 146 65 L 145 64 L 144 64 L 143 63 L 142 63 L 141 62 L 140 62 L 139 61 L 138 61 L 137 60 L 136 60 L 135 59 L 134 59 L 133 58 L 132 58 L 131 57 L 130 57 L 129 56 L 128 56 L 126 54 L 125 54 L 124 53 L 123 53 L 122 52 L 121 52 L 120 51 L 119 51 L 118 50 L 117 50 L 116 49 L 115 49 L 114 48 L 113 48 L 112 47 L 111 47 L 110 46 L 109 46 L 108 45 L 107 45 L 106 44 L 105 44 L 104 43 L 102 43 L 101 42 L 100 42 L 99 41 L 97 41 L 96 40 L 93 40 L 92 39 L 90 39 L 89 38 L 85 38 L 84 37 Z" fill="url(#goldGradient)" stroke="none" /><path d="M 92 24 L 91 25 L 87 25 L 86 26 L 84 26 L 83 27 L 81 27 L 80 28 L 79 28 L 77 30 L 77 31 L 78 31 L 79 30 L 81 30 L 82 29 L 86 29 L 87 28 L 93 28 L 94 27 L 95 28 L 103 28 L 104 29 L 108 29 L 109 30 L 112 30 L 113 31 L 114 31 L 115 32 L 117 32 L 118 33 L 120 33 L 121 34 L 122 34 L 123 35 L 125 35 L 127 37 L 128 37 L 129 38 L 130 38 L 131 39 L 132 39 L 133 40 L 134 40 L 135 41 L 136 41 L 138 43 L 139 43 L 140 44 L 141 44 L 142 45 L 143 45 L 144 46 L 145 46 L 147 48 L 148 48 L 149 49 L 150 49 L 151 50 L 152 50 L 153 51 L 154 51 L 155 52 L 156 52 L 158 54 L 160 54 L 162 56 L 164 56 L 165 57 L 166 57 L 167 58 L 168 58 L 169 59 L 171 59 L 172 60 L 174 60 L 175 61 L 177 61 L 178 62 L 181 62 L 182 63 L 185 63 L 186 64 L 202 64 L 203 63 L 205 63 L 206 62 L 208 62 L 209 61 L 210 61 L 211 60 L 212 60 L 214 58 L 215 58 L 218 55 L 218 54 L 219 53 L 219 52 L 220 51 L 220 50 L 221 49 L 221 41 L 220 40 L 220 39 L 219 38 L 219 37 L 214 32 L 213 32 L 211 30 L 209 30 L 208 29 L 194 29 L 193 30 L 192 30 L 191 31 L 190 31 L 189 32 L 188 32 L 183 37 L 183 38 L 182 39 L 182 44 L 183 45 L 183 46 L 184 47 L 184 48 L 185 49 L 186 49 L 188 51 L 191 51 L 192 52 L 194 52 L 195 51 L 199 51 L 200 50 L 201 50 L 202 49 L 204 49 L 204 47 L 202 47 L 201 48 L 199 48 L 198 49 L 190 49 L 189 48 L 187 48 L 184 45 L 184 44 L 183 43 L 183 40 L 186 37 L 186 36 L 187 35 L 188 35 L 190 33 L 191 33 L 192 32 L 194 32 L 195 31 L 206 31 L 207 32 L 210 32 L 211 33 L 212 33 L 213 34 L 214 34 L 218 38 L 218 39 L 219 40 L 219 42 L 220 43 L 220 45 L 219 46 L 219 48 L 218 49 L 218 50 L 212 56 L 211 56 L 210 57 L 208 57 L 207 58 L 205 58 L 204 59 L 189 59 L 188 58 L 185 58 L 184 57 L 181 57 L 180 56 L 177 56 L 176 55 L 175 55 L 174 54 L 172 54 L 171 53 L 170 53 L 169 52 L 168 52 L 167 51 L 165 51 L 163 49 L 162 49 L 161 48 L 159 48 L 157 46 L 156 46 L 155 45 L 154 45 L 153 44 L 152 44 L 150 42 L 149 42 L 148 41 L 147 41 L 146 40 L 145 40 L 143 38 L 141 38 L 139 36 L 138 36 L 137 35 L 136 35 L 135 34 L 134 34 L 133 33 L 132 33 L 131 32 L 129 32 L 128 31 L 127 31 L 126 30 L 125 30 L 124 29 L 122 29 L 121 28 L 120 28 L 119 27 L 116 27 L 115 26 L 112 26 L 111 25 L 107 25 L 106 24 Z" fill="url(#goldGradient)" stroke="none" /></svg>